<?xml version="1.0" encoding="utf-8"?>
<!-- Generator: Adobe Illustrator 16.0.0, SVG Export Plug-In . SVG Version: 6.00 Build 0)  -->
<!DOCTYPE svg PUBLIC "-//W3C//DTD SVG 1.1//EN" "http://www.w3.org/Graphics/SVG/1.1/DTD/svg11.dtd">
<svg version="1.1" id="Layer_1" xmlns="http://www.w3.org/2000/svg" xmlns:xlink="http://www.w3.org/1999/xlink" x="0px" y="0px"
	 width="301.25px" height="78.25px" viewBox="0 0 301.25 78.25" enable-background="new 0 0 301.25 78.25" xml:space="preserve">
<rect x="37.564" y="5.638" fill="none" stroke="#FFFFFF" stroke-width="6.4" stroke-miterlimit="10" width="257.436" height="66.86"/>
<g>
	<path fill="#FFF200" d="M40.601,5.772h247.447v66.727H40.601c17.597-1.528,31.39-15.881,31.39-33.362
		C71.991,21.655,58.198,7.302,40.601,5.772"/>
</g>
<rect x="274.711" y="5.772" fill="#005496" width="20.289" height="66.726"/>
<g>
	
		<ellipse fill="none" stroke="#FFFFFF" stroke-width="6.784" stroke-miterlimit="3" cx="37.617" cy="39.136" rx="33.076" ry="33.498"/>
	<path fill="#005496" d="M4.541,39.137c0-18.5,14.808-33.499,33.075-33.499c18.268,0,33.076,14.999,33.076,33.499
		c0,18.498-14.808,33.498-33.076,33.498C19.349,72.635,4.541,57.635,4.541,39.137"/>
	<polygon fill="#FFF200" points="10.638,47.354 37.593,9.852 65.413,47.377 	"/>
	<path fill="#005496" d="M36.021,23.643c-0.011,1.032,0.036,2.186,0.036,2.186c-0.561,0.053-2.68-0.079-5.789,2.587
		c-2.962,2.539-3.355,5.408-3.522,7.518c-0.092,1.156,0.343,3.055,1.725,4.457c0.878,0.891,2.455,1.666,3.665,1.738
		c1.208,0.073,3.787-0.218,3.787-0.218v1.974c0,0-3.604,0.299-4.588,0.146c-1.366-0.213-4.45-1.701-5.513-3.883
		c-1.141-2.338-1.281-4.07-0.995-5.9c0.284-1.83,1.957-5.326,3.056-6.445c1.895-1.925,3.559-2.68,4.969-3.312
		C33.719,24.102,34.829,23.747,36.021,23.643"/>
	<path fill="#005496" d="M38.973,23.643l0.022,20.25c0,0,3.536,0.022,4.824-0.225c2.113-0.4,4.181-1.693,5.195-3.723
		c1.015-2.029,1.016-2.713,1.04-4.018c0.041-2.295-0.906-5.09-1.764-6.333c-1.078-1.56-2.708-3.065-4.114-4.042
		C41.547,23.726,38.973,23.643,38.973,23.643"/>
	<path fill="#FFF200" d="M41.099,26.513V41.74c0,0,2.861,0.141,4.446-0.918c1.316-0.875,2.461-2.811,2.553-4.93
		c0.072-1.645-0.173-2.545-0.947-4.199c-0.576-1.231-1.16-2.002-2.864-3.508C42.401,26.519,41.099,26.513,41.099,26.513"/>
	<path fill="#FFF200" d="M41.099,26.513V41.74c0,0,2.861,0.141,4.446-0.918c1.316-0.875,2.461-2.811,2.553-4.93
		c0.072-1.645-0.173-2.545-0.947-4.199c-0.576-1.231-1.16-2.002-2.864-3.508C42.401,26.519,41.099,26.513,41.099,26.513"/>
	<path fill="none" stroke="#FFEF00" stroke-width="0.07" stroke-miterlimit="3.864" d="M41.099,26.513V41.74
		c0,0,2.861,0.141,4.446-0.918c1.316-0.875,2.461-2.811,2.553-4.93c0.072-1.645-0.173-2.545-0.947-4.199
		c-0.576-1.231-1.16-2.002-2.864-3.508C42.401,26.519,41.099,26.513,41.099,26.513z"/>
	<path fill="#FFF200" d="M30.029,51.184c-0.014,0.008-0.288-0.176-1.813-0.183c-1.626-0.009-2.599,1.312-2.599,2.892
		c0,1.582,0.973,2.896,2.599,2.896c1.313,0,0.878-0.002,1.81-0.097l-0.119-0.789c-0.48,0.115-0.82,0.143-1.691,0.098
		c-1.162-0.061-1.65-1.044-1.65-2.105c0-1.061,0.486-2.104,1.65-2.104c0.789,0,0.936,0.01,1.799,0.171L30.029,51.184z"/>
	<rect x="32.684" y="51.132" fill="#FFF200" width="0.949" height="5.521"/>
	<polygon fill="#FFF200" points="37.278,56.654 38.334,56.654 40.188,51.134 39.223,51.134 37.832,55.504 37.818,55.504 
		36.458,51.134 35.47,51.134 	"/>
	<rect x="42.021" y="51.132" fill="#FFF200" width="0.949" height="5.521"/>
	<polygon fill="#FFF200" points="45.422,56.654 49.13,56.654 49.13,55.82 46.371,55.82 46.371,51.134 45.422,51.134 	"/>
	<path fill="#FFF200" d="M16.827,62.344l1.944,1.143c1.448,0.851,2.678,0.146,3.425-1.174c0.749-1.316,0.73-2.754-0.715-3.604
		l-1.945-1.144L16.827,62.344z M19.97,58.729l0.809,0.476c1.287,0.759,1.139,1.671,0.597,2.629
		c-0.543,0.957-1.244,1.543-2.532,0.786l-0.809-0.477L19.97,58.729z"/>
	<polygon fill="#FFF200" points="23.309,65.678 27.089,66.855 27.33,66.057 24.456,65.16 24.919,63.616 27.532,64.432 
		27.757,63.676 25.146,62.863 25.559,61.482 28.383,62.359 28.623,61.562 24.891,60.4 	"/>
	<polygon fill="#FFF200" points="29.558,67.291 30.5,67.409 30.792,64.979 33.226,65.279 33.319,64.498 30.888,64.193 31.06,62.76 
		33.831,63.107 33.931,62.277 30.217,61.814 	"/>
	<polygon fill="#FFF200" points="35.635,67.809 39.588,67.736 39.574,66.9 36.569,66.954 36.542,65.34 39.273,65.292 39.259,64.504 
		36.528,64.55 36.503,63.107 39.456,63.053 39.439,62.221 35.541,62.289 	"/>
	<polygon fill="#FFF200" points="41.936,67.52 42.831,67.393 42.275,63.372 42.297,63.368 45.295,67.036 46.288,66.896 
		45.533,61.43 44.637,61.561 45.193,65.584 45.18,65.587 42.174,61.91 41.181,62.053 	"/>
	<polygon fill="#FFF200" points="55.846,63.447 59.124,61.199 58.665,60.506 56.174,62.217 55.287,60.877 57.551,59.322 
		57.119,58.669 54.853,60.227 54.061,59.025 56.507,57.346 56.049,56.652 52.815,58.874 	"/>
	<path fill="#FFF200" d="M50.808,59.455c-0.008,0.014-0.336-0.012-1.675,0.734c-1.425,0.795-1.646,2.433-0.894,3.812
		c0.75,1.383,2.229,2.053,3.649,1.249c1.15-0.647,0.768-0.437,1.537-0.979l-0.478-0.633c-0.365,0.34-0.649,0.531-1.433,0.924
		c-1.045,0.521-1.94-0.102-2.444-1.026c-0.506-0.929-0.576-2.082,0.44-2.654c0.69-0.392,0.825-0.457,1.655-0.741L50.808,59.455z"/>
	<polygon fill="#005496" points="121.449,37.418 118.887,26.088 121.431,26.088 123.042,34.674 124.765,26.088 126.802,26.088 
		128.696,34.844 130.099,26.088 132.62,26.088 130.22,37.418 127.309,37.418 125.781,30.259 124.377,37.418 	"/>
	<polygon fill="#005496" points="134.057,37.418 134.057,26.088 140.832,26.088 140.832,27.971 136.496,27.971 136.496,30.591 
		140.533,30.591 140.533,32.384 136.496,32.384 136.496,35.505 140.935,35.505 140.935,37.418 	"/>
	<polygon fill="#005496" points="142.742,37.418 142.742,26.088 145.201,26.088 145.201,35.49 149.637,35.49 149.637,37.418 	"/>
	<polygon fill="#005496" points="151.299,37.418 151.299,26.088 153.758,26.088 153.758,35.49 158.195,35.49 158.195,37.418 	"/>
	<rect x="159.855" y="26.087" fill="#005496" width="2.459" height="11.33"/>
	<polygon fill="#005496" points="164.561,37.418 164.561,26.088 167.083,26.088 170.52,34.012 170.449,26.088 172.771,26.088 
		172.771,37.418 170.264,37.418 166.803,29.479 166.871,37.418 	"/>
	<path fill="#005496" d="M181.525,37.418l-0.18-1.25c-0.252,0.544-0.595,0.934-1.031,1.17c-0.438,0.234-1.037,0.354-1.803,0.354
		c-1.384,0-2.354-0.449-2.918-1.346c-0.562-0.898-0.844-2.546-0.844-4.939c0-1.118,0.066-2.015,0.203-2.689
		c0.133-0.675,0.343-1.195,0.63-1.564c0.34-0.45,0.795-0.784,1.36-1.001c0.566-0.215,1.268-0.323,2.105-0.323
		c1.415,0,2.458,0.287,3.129,0.861c0.674,0.574,1.008,1.467,1.008,2.678v0.286h-2.295v-0.116c0-0.676-0.147-1.189-0.44-1.535
		c-0.298-0.344-0.731-0.518-1.313-0.518c-0.716,0-1.201,0.235-1.465,0.706c-0.263,0.47-0.395,1.719-0.395,3.745
		c0,1.6,0.125,2.67,0.375,3.209s0.705,0.809,1.363,0.809c0.651,0,1.113-0.189,1.391-0.574c0.277-0.382,0.416-1.029,0.416-1.941
		v-0.389h-1.703v-1.811h4.066v6.18H181.525z"/>
	<polygon fill="#005496" points="186.914,37.418 186.914,27.956 184.087,27.956 184.087,26.088 192.197,26.088 192.197,27.956 
		189.371,27.956 189.371,37.418 	"/>
	<path fill="#005496" d="M193.227,31.753c0-1.2,0.066-2.162,0.198-2.88c0.132-0.718,0.335-1.26,0.613-1.623
		c0.386-0.515,0.841-0.883,1.372-1.103c0.527-0.221,1.229-0.332,2.094-0.332c0.867,0,1.566,0.111,2.1,0.332
		c0.53,0.22,0.989,0.588,1.375,1.103c0.277,0.373,0.486,0.919,0.612,1.634c0.127,0.716,0.188,1.672,0.188,2.869
		c0,1.192-0.062,2.147-0.192,2.866c-0.131,0.718-0.334,1.264-0.608,1.637c-0.386,0.516-0.845,0.883-1.375,1.104
		c-0.533,0.221-1.231,0.332-2.1,0.332c-0.865,0-1.564-0.111-2.094-0.332c-0.531-0.221-0.986-0.588-1.372-1.104
		c-0.278-0.363-0.481-0.904-0.613-1.623C193.293,33.915,193.227,32.954,193.227,31.753 M195.736,31.753
		c0,1.864,0.127,3.037,0.381,3.521c0.253,0.482,0.721,0.725,1.402,0.725c0.674,0,1.133-0.236,1.383-0.71
		c0.248-0.474,0.371-1.651,0.371-3.535c0-1.883-0.125-3.065-0.375-3.547c-0.252-0.48-0.717-0.719-1.396-0.719
		s-1.142,0.239-1.392,0.719C195.861,28.688,195.736,29.87,195.736,31.753"/>
	<polygon fill="#005496" points="203.787,37.418 203.787,26.088 206.312,26.088 209.747,34.012 209.68,26.088 212,26.088 
		212,37.418 209.49,37.418 206.031,29.479 206.1,37.418 	"/>
	<path fill="#005496" d="M218.631,37.419V26.087h4.401c1.331,0,2.286,0.231,2.872,0.695c0.588,0.463,0.881,1.22,0.881,2.271
		c0,0.735-0.157,1.316-0.471,1.74c-0.314,0.424-0.776,0.673-1.389,0.746c1.165,0.266,1.77,1.111,1.823,2.539v0.146l0.065,1.502
		c0.023,0.426,0.088,0.77,0.189,1.025c0.104,0.258,0.264,0.48,0.48,0.667h-2.912c-0.07-0.192-0.119-0.416-0.154-0.674
		c-0.033-0.259-0.057-0.622-0.066-1.093l-0.035-1.186v-0.301c0-0.657-0.164-1.109-0.486-1.354c-0.328-0.246-0.99-0.369-1.988-0.369
		h-0.839v4.976H218.631z M221.004,30.877h1.413c0.712,0,1.209-0.123,1.483-0.368c0.279-0.245,0.416-0.685,0.416-1.318
		c0-0.563-0.149-0.958-0.453-1.183c-0.303-0.227-0.854-0.339-1.651-0.339h-1.208V30.877z"/>
	<polygon fill="#005496" points="228.755,37.418 228.755,26.088 235.529,26.088 235.529,27.971 231.195,27.971 231.195,30.591 
		235.229,30.591 235.229,32.384 231.195,32.384 231.195,35.505 235.634,35.505 235.634,37.418 	"/>
	<path fill="#005496" d="M243.949,37.418l-0.18-1.25c-0.252,0.544-0.598,0.934-1.033,1.17c-0.437,0.234-1.036,0.354-1.801,0.354
		c-1.385,0-2.354-0.449-2.92-1.346c-0.562-0.898-0.843-2.546-0.843-4.939c0-1.118,0.067-2.015,0.203-2.689
		c0.133-0.675,0.343-1.195,0.628-1.564c0.344-0.45,0.796-0.784,1.363-1.001c0.564-0.215,1.265-0.323,2.104-0.323
		c1.416,0,2.459,0.287,3.133,0.861c0.672,0.574,1.006,1.467,1.006,2.678v0.286h-2.295v-0.116c0-0.676-0.147-1.189-0.44-1.535
		c-0.295-0.344-0.731-0.518-1.313-0.518c-0.719,0-1.203,0.235-1.465,0.706c-0.265,0.47-0.396,1.719-0.396,3.745
		c0,1.6,0.126,2.67,0.377,3.209c0.25,0.539,0.705,0.809,1.362,0.809c0.65,0,1.113-0.189,1.392-0.574
		c0.274-0.382,0.416-1.029,0.416-1.941v-0.389h-1.704v-1.811h4.066v6.18H243.949z"/>
	<rect x="247.77" y="26.087" fill="#005496" width="2.459" height="11.33"/>
	<path fill="#005496" d="M252.205,31.753c0-1.2,0.068-2.162,0.199-2.88c0.131-0.718,0.337-1.26,0.611-1.623
		c0.387-0.515,0.844-0.883,1.373-1.103c0.528-0.221,1.229-0.332,2.096-0.332c0.869,0,1.566,0.111,2.098,0.332
		c0.531,0.22,0.99,0.588,1.375,1.103c0.279,0.373,0.486,0.919,0.613,1.634c0.127,0.716,0.189,1.672,0.189,2.869
		c0,1.192-0.062,2.147-0.191,2.866c-0.133,0.718-0.336,1.264-0.611,1.637c-0.385,0.516-0.844,0.883-1.375,1.104
		c-0.529,0.221-1.229,0.332-2.098,0.332c-0.866,0-1.566-0.111-2.096-0.332s-0.986-0.588-1.373-1.104
		c-0.274-0.363-0.48-0.904-0.611-1.623C252.273,33.915,252.205,32.954,252.205,31.753 M254.715,31.753
		c0,1.864,0.129,3.037,0.383,3.521c0.252,0.482,0.721,0.725,1.402,0.725c0.674,0,1.133-0.236,1.382-0.71
		c0.248-0.474,0.371-1.651,0.371-3.535c0-1.883-0.124-3.065-0.374-3.547c-0.252-0.48-0.717-0.719-1.395-0.719
		c-0.68,0-1.142,0.239-1.393,0.719C254.844,28.688,254.715,29.87,254.715,31.753"/>
	<polygon fill="#005496" points="262.766,37.418 262.766,26.088 265.293,26.088 268.729,34.012 268.659,26.088 270.98,26.088 
		270.98,37.418 268.471,37.418 265.012,29.479 265.079,37.418 	"/>
	<polygon fill="#005496" points="76.583,55.5 76.583,44.171 83.358,44.171 83.358,46.055 79.023,46.055 79.023,48.672 83.06,48.672 
		83.06,50.467 79.023,50.467 79.023,53.588 83.461,53.588 83.461,55.5 	"/>
	<polygon fill="#005496" points="85.27,55.5 85.27,44.171 88.971,44.171 90.777,51.505 92.583,44.171 96.284,44.171 96.284,55.5 
		93.938,55.5 93.989,45.45 91.531,55.5 90.023,55.5 87.564,45.45 87.625,55.5 	"/>
	<polygon fill="#005496" points="98.528,55.5 98.528,44.171 105.303,44.171 105.303,46.055 100.968,46.055 100.968,48.672 
		105.004,48.672 105.004,50.467 100.968,50.467 100.968,53.588 105.406,53.588 105.406,55.5 	"/>
	<path fill="#005496" d="M107.214,55.501V44.169h4.402c1.33,0,2.288,0.231,2.873,0.694c0.586,0.464,0.878,1.221,0.878,2.271
		c0,0.735-0.157,1.316-0.47,1.74c-0.314,0.424-0.776,0.673-1.388,0.746c1.165,0.266,1.773,1.111,1.825,2.539v0.146l0.068,1.5
		c0.023,0.428,0.086,0.771,0.189,1.026c0.101,0.258,0.262,0.479,0.479,0.667h-2.911c-0.07-0.191-0.122-0.416-0.155-0.674
		c-0.035-0.258-0.058-0.622-0.069-1.092l-0.033-1.188v-0.301c0-0.657-0.164-1.109-0.489-1.354c-0.325-0.244-0.989-0.367-1.988-0.367
		h-0.839V55.5L107.214,55.501L107.214,55.501z M109.586,48.959h1.413c0.714,0,1.209-0.123,1.487-0.368
		c0.277-0.245,0.416-0.685,0.416-1.317c0-0.562-0.152-0.957-0.455-1.184c-0.303-0.227-0.853-0.339-1.653-0.339h-1.208V48.959z"/>
	<path fill="#005496" d="M123.847,55.5l-0.179-1.25c-0.254,0.543-0.595,0.936-1.032,1.171c-0.438,0.233-1.038,0.353-1.802,0.353
		c-1.384,0-2.355-0.448-2.918-1.346c-0.563-0.898-0.844-2.545-0.844-4.939c0-1.118,0.067-2.016,0.201-2.688
		c0.135-0.676,0.345-1.194,0.63-1.563c0.343-0.45,0.797-0.784,1.363-1.002c0.564-0.215,1.265-0.322,2.106-0.322
		c1.415,0,2.46,0.287,3.129,0.861c0.673,0.574,1.008,1.467,1.008,2.678v0.287h-2.295V47.62c0-0.677-0.147-1.188-0.441-1.535
		c-0.295-0.345-0.734-0.519-1.315-0.519c-0.714,0-1.201,0.236-1.464,0.707c-0.263,0.47-0.395,1.719-0.395,3.744
		c0,1.6,0.126,2.67,0.377,3.209c0.25,0.539,0.705,0.809,1.362,0.809c0.651,0,1.114-0.189,1.392-0.574
		c0.275-0.382,0.416-1.027,0.416-1.941v-0.389h-1.704V49.32h4.067v6.18H123.847z"/>
	<polygon fill="#005496" points="127.668,55.5 127.668,44.171 134.445,44.171 134.445,46.055 130.108,46.055 130.108,48.672 
		134.143,48.672 134.143,50.467 130.108,50.467 130.108,53.588 134.546,53.588 134.546,55.5 	"/>
	<polygon fill="#005496" points="136.354,55.5 136.354,44.171 138.88,44.171 142.315,52.094 142.244,44.171 144.566,44.171 
		144.566,55.5 142.058,55.5 138.598,47.562 138.666,55.5 	"/>
	<path fill="#005496" d="M152.055,51.461h2.389c0,0.049,0.002,0.121,0.008,0.217c0.008,0.096,0.009,0.172,0.009,0.225
		c0,1.312-0.319,2.281-0.964,2.918c-0.641,0.636-1.624,0.953-2.949,0.953c-0.628,0-1.169-0.069-1.617-0.211
		c-0.455-0.14-0.84-0.357-1.165-0.65c-0.447-0.393-0.76-0.932-0.943-1.617c-0.183-0.688-0.277-1.886-0.277-3.593
		c0-1.167,0.057-2.095,0.164-2.784c0.109-0.688,0.277-1.202,0.508-1.541c0.354-0.521,0.791-0.896,1.316-1.13
		c0.524-0.231,1.195-0.351,2.015-0.351c1.336,0,2.31,0.301,2.917,0.898c0.605,0.598,0.915,1.561,0.919,2.885h-2.38v-0.273
		c0-0.612-0.115-1.069-0.347-1.371c-0.231-0.303-0.583-0.453-1.058-0.453c-0.588,0-0.991,0.208-1.205,0.626
		c-0.215,0.415-0.321,1.569-0.321,3.458c0,2.04,0.104,3.281,0.312,3.725c0.209,0.439,0.607,0.662,1.195,0.662
		c0.548,0,0.929-0.173,1.147-0.521c0.217-0.346,0.326-0.982,0.326-1.916V51.461z"/>
	<polygon fill="#005496" points="158.915,55.5 158.915,50.695 155.452,44.171 158.18,44.171 160.172,48.43 162.146,44.171 
		164.789,44.171 161.391,50.695 161.391,55.5 	"/>
	<polygon fill="#005496" points="170.453,55.5 170.453,44.171 174.15,44.171 175.961,51.505 177.768,44.171 181.465,44.171 
		181.465,55.5 179.119,55.5 179.172,45.45 176.715,55.5 175.207,55.5 172.748,45.45 172.809,55.5 	"/>
	<path fill="#005496" d="M182.741,55.499l2.975-11.33h3.298l2.998,11.33h-2.646l-0.652-2.847h-2.824l-0.637,2.847H182.741z
		 M186.271,50.953h2.09l-1.053-4.754L186.271,50.953z"/>
	<polygon fill="#005496" points="193.305,55.5 193.305,44.171 195.831,44.171 199.266,52.094 199.197,44.171 201.52,44.171 
		201.52,55.5 199.008,55.5 195.55,47.562 195.617,55.5 	"/>
	<path fill="#005496" d="M202.794,55.499l2.974-11.33h3.297l2.998,11.33h-2.646l-0.653-2.847h-2.824l-0.637,2.847H202.794z
		 M206.324,50.953h2.089l-1.054-4.754L206.324,50.953z"/>
	<path fill="#005496" d="M219.866,55.5l-0.181-1.25c-0.254,0.543-0.597,0.936-1.031,1.171c-0.439,0.233-1.037,0.353-1.801,0.353
		c-1.387,0-2.355-0.448-2.922-1.346c-0.562-0.898-0.844-2.545-0.844-4.939c0-1.118,0.069-2.016,0.205-2.688
		c0.131-0.676,0.344-1.194,0.627-1.563c0.342-0.45,0.797-0.784,1.364-1.002c0.563-0.215,1.264-0.322,2.104-0.322
		c1.416,0,2.459,0.287,3.131,0.861s1.008,1.467,1.008,2.678v0.287h-2.295V47.62c0-0.677-0.149-1.188-0.441-1.535
		c-0.296-0.345-0.732-0.519-1.314-0.519c-0.717,0-1.201,0.236-1.463,0.707c-0.265,0.47-0.396,1.719-0.396,3.744
		c0,1.6,0.128,2.67,0.377,3.209c0.252,0.539,0.706,0.809,1.361,0.809c0.653,0,1.115-0.189,1.393-0.574
		c0.277-0.382,0.416-1.027,0.416-1.941v-0.389h-1.704V49.32h4.069v6.18H219.866z"/>
	<polygon fill="#005496" points="223.686,55.5 223.686,44.171 230.46,44.171 230.46,46.055 226.125,46.055 226.125,48.672 
		230.159,48.672 230.159,50.467 226.125,50.467 226.125,53.588 230.564,53.588 230.564,55.5 	"/>
	<polygon fill="#005496" points="232.369,55.5 232.369,44.171 236.07,44.171 237.879,51.505 239.686,44.171 243.384,44.171 
		243.384,55.5 241.036,55.5 241.089,45.45 238.632,55.5 237.124,55.5 234.665,45.45 234.727,55.5 	"/>
	<polygon fill="#005496" points="245.63,55.5 245.63,44.171 252.402,44.171 252.402,46.055 248.068,46.055 248.068,48.672 
		252.104,48.672 252.104,50.467 248.068,50.467 248.068,53.588 252.509,53.588 252.509,55.5 	"/>
	<polygon fill="#005496" points="254.312,55.5 254.312,44.171 256.84,44.171 260.275,52.094 260.206,44.171 262.527,44.171 
		262.527,55.5 260.018,55.5 256.559,47.562 256.626,55.5 	"/>
	<polygon fill="#005496" points="266.648,55.5 266.648,46.038 263.82,46.038 263.82,44.171 271.934,44.171 271.934,46.038 
		269.105,46.038 269.105,55.5 	"/>
	<path fill="#FFF200" d="M284.923,62.827c-1.673,0-2.901-0.304-3.685-0.908c-0.78-0.604-1.174-1.552-1.174-2.841
		c0-1.293,0.394-2.241,1.174-2.848c0.779-0.605,2.008-0.905,3.685-0.905s2.906,0.303,3.694,0.911
		c0.783,0.607,1.179,1.554,1.179,2.842c0,1.283-0.396,2.229-1.179,2.837C287.829,62.521,286.6,62.827,284.923,62.827
		 M284.923,61.736c1.409,0,2.453-0.217,3.132-0.651c0.672-0.431,1.014-1.103,1.014-2.007s-0.338-1.572-1.01-2
		c-0.672-0.434-1.719-0.646-3.136-0.646c-1.42,0-2.464,0.215-3.137,0.646c-0.675,0.428-1.011,1.096-1.011,2s0.34,1.576,1.017,2.007
		C282.471,61.52,283.512,61.736,284.923,61.736"/>
	<polygon fill="#FFF200" points="289.607,53.2 280.251,53.2 280.251,47.363 280.979,47.363 280.979,52.049 284.355,52.049 
		284.355,47.844 285.076,47.844 285.076,52.049 289.607,52.049 	"/>
	<polygon fill="#FFF200" points="289.607,45.68 280.251,45.68 280.251,39.841 280.979,39.841 280.979,44.527 284.355,44.527 
		284.355,40.322 285.076,40.322 285.076,44.527 289.607,44.527 	"/>
	<rect x="280.251" y="37.053" fill="#FFF200" width="9.356" height="1.073"/>
	<path fill="#FFF200" d="M286.468,27.533c1.097,0.099,1.925,0.454,2.485,1.061c0.564,0.608,0.843,1.454,0.843,2.536
		c0,1.29-0.394,2.236-1.181,2.841c-0.785,0.604-2.02,0.907-3.693,0.907c-1.673,0-2.898-0.304-3.684-0.907
		c-0.778-0.604-1.174-1.551-1.174-2.841c0-1.069,0.258-1.918,0.771-2.54c0.508-0.623,1.217-0.946,2.124-0.976l0.009,1.094
		c-0.694,0.043-1.233,0.277-1.616,0.698c-0.384,0.422-0.574,0.997-0.574,1.724c0,0.899,0.336,1.563,1.01,1.995
		c0.673,0.43,1.718,0.646,3.136,0.646c1.417,0,2.464-0.217,3.138-0.646c0.672-0.432,1.006-1.096,1.006-1.995
		c0-0.731-0.225-1.319-0.676-1.757c-0.449-0.44-1.093-0.695-1.922-0.766L286.468,27.533L286.468,27.533z"/>
	<polygon fill="#FFF200" points="289.607,25.384 280.251,25.384 280.251,19.554 280.979,19.554 280.979,24.234 284.355,24.234 
		284.355,20.037 285.076,20.037 285.076,24.234 288.877,24.234 288.877,19.554 289.607,19.554 	"/>
</g>
</svg>
